# xmcd
#
# Track frame offsets: 
#        150
#        13757
#        25333
#        37991
#        49471
#        58537
#        69667
#        82494
#        94182
#        105094
#        117594
#        132682
#
# Disc length: 1951 seconds
#
# Revision: 0
# Processed by: cddbd v1.5.2PL0 Copyright (c) Steve Scherf et al.
# Submitted via: ExactAudioCopy v0.99pb3
#
DISCID=ac079d0c
DTITLE=Various Artist - Yellow Sun Blues, Vol. 1
DYEAR=2006
DGENRE=Blues
TTITLE0=Cotton Crop Blues
TTITLE1=Next Time I See You
TTITLE2=Boogie In The Park
TTITLE3=T-Model Boogie
TTITLE4=Crawl Back
TTITLE5=Mystery Train
TTITLE6=Tiger Man
TTITLE7=Juke Box Boogie
TTITLE8=Feel So Good
TTITLE9=Just Walking In The Rain
TTITLE10=Signifying Monkey
TTITLE11=Rockin Chair Blues
EXTD=
EXTT0=
EXTT1=
EXTT2=
EXTT3=
EXTT4=
EXTT5=
EXTT6=
EXTT7=
EXTT8=
EXTT9=
EXTT10=
EXTT11=
PLAYORDER=
